<?xml version="1.0" encoding="utf-8"?>
<!-- Generator: Adobe Illustrator 22.0.1, SVG Export Plug-In . SVG Version: 6.00 Build 0)  -->
<svg version="1.1" id="Layer_1" xmlns="http://www.w3.org/2000/svg" xmlns:xlink="http://www.w3.org/1999/xlink" x="0px" y="0px"
	 viewBox="0 0 1371.6 775.3" style="enable-background:new 0 0 1371.6 775.3;" xml:space="preserve">
<style type="text/css">
	.st0{fill:url(#SVGID_1_);}
	.st1{fill:url(#SVGID_2_);}
</style>
<title>wizard-bg</title>
<g id="Layer_2_1_">
	<g id="Layer_1-2">
		
			<linearGradient id="SVGID_1_" gradientUnits="userSpaceOnUse" x1="2296.9126" y1="-1817.2712" x2="1146.9199" y2="-1352.6439" gradientTransform="matrix(6.123234e-17 1 1 -6.123234e-17 2270.8799 -1334.28)">
			<stop  offset="0" style="stop-color:#0D0F11"/>
			<stop  offset="0.3507" style="stop-color:#0F1113"/>
			<stop  offset="0.5581" style="stop-color:#15181C"/>
			<stop  offset="0.7281" style="stop-color:#20242A"/>
			<stop  offset="0.877" style="stop-color:#30353E"/>
			<stop  offset="1" style="stop-color:#424955"/>
		</linearGradient>
		<path class="st0" d="M1376-2.4H-4.1v780.1h4h364.3h403.5h269.7h246.5h92.1l0,0l0,0L1376-2.4z"/>
		
			<linearGradient id="SVGID_2_" gradientUnits="userSpaceOnUse" x1="2395.3677" y1="-2410.1018" x2="1576.7247" y2="-803.4246" gradientTransform="matrix(6.123234e-17 1 1 -6.123234e-17 2270.8799 -1334.28)">
			<stop  offset="0" style="stop-color:#0D0F11"/>
			<stop  offset="0.2264" style="stop-color:#14171A"/>
			<stop  offset="0.5996" style="stop-color:#282C33"/>
			<stop  offset="1" style="stop-color:#424955"/>
		</linearGradient>
		<path class="st1" d="M1279.7,245.7c-29.5,31.4-79,32.4-109.5,2c-37-36.8-118.7-90-166.3-119.7c-36-22.5-82.2-19.7-115.3,6.8
			C829.4,182.4,770,282.5,708.9,399.3C620.6,568,518.8,594.2,301.1,434.7c-198.1-145-320.2,267-355,343H1376l-2-718.6
			C1359.9,138.1,1318.9,204,1279.7,245.7z"/>
	</g>
</g>
</svg>
