<svg xmlns="http://www.w3.org/2000/svg" xmlns:xlink="http://www.w3.org/1999/xlink" viewBox="0 0 1371.58 775.29"><defs><style>.cls-1{fill:url(#Degradado_sin_nombre_3);}.cls-2{fill:url(#Degradado_sin_nombre_3-2);}.cls-3{fill:url(#Degradado_sin_nombre_3-3);}</style><linearGradient id="Degradado_sin_nombre_3" x1="1456.28" y1="2787.09" x2="2231.57" y2="2787.09" gradientTransform="translate(3472.88 -1456.28) rotate(90)" gradientUnits="userSpaceOnUse"><stop offset="0" stop-color="#194b93"/><stop offset="1" stop-color="#4285b9"/></linearGradient><linearGradient id="Degradado_sin_nombre_3-2" x1="1456.28" y1="2785.11" x2="2231.57" y2="2785.11" xlink:href="#Degradado_sin_nombre_3"/><linearGradient id="Degradado_sin_nombre_3-3" x1="380.47" y1="-873.07" x2="1759.91" y2="-873.07" gradientTransform="matrix(1, -0.01, 0.01, 1.22, -377.38, 1510.07)" xlink:href="#Degradado_sin_nombre_3"/></defs><title>wizard-bg</title><g id="Layer_2" data-name="Layer 2"><g id="Layer_1-2" data-name="Layer 1"><path class="cls-1" d="M1371.58,0H0V775.29H4c33.3-72.66,150.09-466.73,339.49-328,208.27,152.54,305.63,127.42,390-33.85S898.75,124.23,980.8,132.57s196.89,189,235.84,179.54,130.73-99.71,153-224.07l1.89,687.25h0Z"/><path class="cls-2" d="M1216.64,312.11c-39,9.44-153.79-171.21-235.84-179.54S817.94,252.16,733.52,413.43s-181.78,186.39-390,33.85C154.07,308.56,37.28,702.63,4,775.29H1371.55L1369.66,88C1347.37,212.4,1255.59,302.67,1216.64,312.11Z"/><path class="cls-3" d="M1216.64,312.11c-39,9.44-153.79-171.21-235.84-179.54S817.94,252.16,733.52,413.43s-181.78,186.39-390,33.85C154.07,308.56,37.28,702.63,4,775.29H1371.55L1369.66,88C1347.37,212.4,1255.59,302.67,1216.64,312.11Z"/></g></g></svg>